<?xml version="1.0" encoding="UTF-8" standalone="no"?>
<!-- Created with Inkscape (http://www.inkscape.org/) -->

<svg
   xmlns:dc="http://purl.org/dc/elements/1.1/"
   xmlns:cc="http://creativecommons.org/ns#"
   xmlns:rdf="http://www.w3.org/1999/02/22-rdf-syntax-ns#"
   xmlns:svg="http://www.w3.org/2000/svg"
   xmlns="http://www.w3.org/2000/svg"
   xmlns:sodipodi="http://sodipodi.sourceforge.net/DTD/sodipodi-0.dtd"
   xmlns:inkscape="http://www.inkscape.org/namespaces/inkscape"
   version="1.1"
   width="1052.3622"
   height="744.10156"
   id="svg2"
   xml:space="preserve"
   inkscape:version="0.48.5 r10040"
   sodipodi:docname="01_Logo-mit-Schriftzug-Outline.svg"><sodipodi:namedview
     pagecolor="#ffffff"
     bordercolor="#666666"
     borderopacity="1"
     objecttolerance="10"
     gridtolerance="10"
     guidetolerance="10"
     inkscape:pageopacity="0"
     inkscape:pageshadow="2"
     inkscape:window-width="640"
     inkscape:window-height="480"
     id="namedview46"
     showgrid="false"
     inkscape:zoom="0.31716101"
     inkscape:cx="526.18109"
     inkscape:cy="372.05078"
     inkscape:window-x="0"
     inkscape:window-y="0"
     inkscape:window-maximized="0"
     inkscape:current-layer="svg2" /><metadata
     id="metadata8"><rdf:RDF><cc:Work
         rdf:about=""><dc:format>image/svg+xml</dc:format><dc:type
           rdf:resource="http://purl.org/dc/dcmitype/StillImage" /><dc:title></dc:title></cc:Work></rdf:RDF></metadata><defs
     id="defs6"><clipPath
       id="clipPath18"><path
         d="m 189.92126,538.58835 496,0 0,-472 -496,0 0,472 z"
         id="path20" /></clipPath><clipPath
       id="clipPath26"><path
         d="m 0,0 841.88976,0 0,595.28126 L 0,595.28126 0,0 z"
         id="path28" /></clipPath><clipPath
       id="clipPath30"><path
         d="m 189.92126,136.88138 496,0 0,-70.293 -496,0 0,70.293 z"
         id="path32" /></clipPath><clipPath
       id="clipPath34"><path
         d="m 0,0 841.88976,0 0,595.28126 L 0,595.28126 0,0 z"
         id="path36" /></clipPath></defs><path
     inkscape:connector-curvature="0"
     style="fill:#000000;fill-opacity:1;fill-rule:evenodd;stroke:none"
     id="path88"
     d="m 728.78785,377.87412 c -2.0125,0 -13.37625,14.7325 -25.2575,32.74 -32.02625,47.5925 -119.71625,109.10375 -172.3575,121.97875 -33.32125,1.52625 -34.99,3.715 -43.60375,-7.05375 -11.79,-12.02375 -29.0225,-47.2475 -46.6955,-34.95625 -5.412,3.84375 -16.388,8.03625 -24.392,9.31125 -42.56662,1.7 -86.455,-41.24125 -81.94459,-85.14875 32.61659,-95.315 98.06659,-173.825 176.80209,-234.4305 25.74875,-18.1775 22.3525,-19.512 23.21625,-58.196 l 4.92625,-41.71775 0.4925,-13.03575 c 8.1925,-0.8244 17.655,12.36875 22.34625,19.513 3.3375,5.081875 9.145,12.3085 12.90375,16.05963 6.7575,6.74125 10.625,5.90512 10.625,-18.50513 0,-24.3275 -0.4925,-19.655112 8.6875,-19.655112 36.935,12.339862 43.0725,58.166112 67.18125,85.099112 7.24375,2.773 25.8575,32.8775 30.14,48.74475 1.9475,7.2175 7.4775,17.79 12.28875,23.49375 4.81125,5.705 8.74875,13.4775 8.74875,17.27375 0,3.79625 1.75,11.91125 3.89,18.03625 3.60625,10.32375 4.9575,11.0675 18.565,10.2275 l 14.67375,-0.90625 0,22.93125 c 52.78129,35.3475 -4.25875,106.655 -21.23625,88.19625 l 0,0 z m -97.815,85.005 c 44.24625,-31.2825 114.045,-92.30125 78.74625,-148.1475 -3.6925,-3.6825 -14.15375,-11.04625 -23.24625,-16.3625 -14.05125,-8.21625 -16.21875,-10.9175 -14.43625,-17.99875 3.24875,-12.91375 -1.33625,-25.97125 -9.11875,-25.97125 -10.40875,0 -45.70875,13.20875 -53.07625,19.86125 -10.4625,9.4475 -8.96,34.7075 2.7075,45.495 8.9925,8.31375 9.41625,12.0075 3.12625,27.25 -1.77125,4.2925 -0.90375,6.17375 2.84625,6.17375 9.54375,0 20.115,22.0925 20.115,42.03625 0,15.385 -5.9575,19.0775 -14.14375,26.71125 -30.03375,22.5525 -102.0925,79.9675 -130.4675,93.53125 -9.26625,0 -6.715,6.1275 4.41625,10.60625 47.95375,9.81625 95.02375,-38.23 132.53125,-63.185 l 0,0 z m -108.6125,24.08 c 27.87375,-25.23875 62.27,-41.2075 91.04125,-66.3375 8.005,-8.04375 12.49125,-16.405 13.725,-25.585 1.78375,-13.265 1.54,-13.635 -9.02625,-13.635 -9.9975,0 -10.94875,1.05125 -11.95875,13.22875 -0.935,11.26875 -2.455,13.3875 -10.26,14.2925 -6.2225,0.72125 -10.7625,4.5225 -14.145,11.84375 -3.84375,8.32375 -9.2175,12.18375 -23.5525,16.92 -10.215,3.3775 -21.47875,8.76125 -25.03125,11.96875 -3.5525,3.2075 -10.81375,5.83125 -16.13625,5.83125 -11.1425,0 -21.73625,4.855 -33.08125,15.16625 -13.1825,11.9775 -8.9575,3.3975 6.6375,-13.48 11.33375,-12.26625 17.0775,-15.79875 25.7,-15.79875 6.1075,0 16.83875,-3.88625 23.8475,-8.6375 7.00875,-4.75125 16.61125,-9.6075 21.34,-10.7925 5.18375,-1.2975 10.1575,-6.2725 12.52375,-12.5275 2.6175,-6.9175 6.38625,-10.37625 11.305,-10.37625 5.725,0 7.38,-2.215 7.38,-9.8775 0,-12.73875 5.82375,-18.3175 19.27,-18.4575 10.24875,-0.10625 10.44375,-0.37 3.9225,-5.29125 -16.08375,-12.13625 -41.235,0.30125 -55.03375,27.21625 -8.23125,16.05375 -12.61375,20.145 -32.16125,30.01625 -12.4475,6.28625 -27.8025,11.82125 -34.12375,12.30125 -12.86125,1.74125 -23.325,10.17875 -30.52,21.18375 l -8.82,14.75625 7.4,10.81875 c 16.85875,24.6475 29.4875,25.7575 59.7575,5.2525 l 0,0 z m -86.38975,-7.3925 c 11.9765,-15.76375 16.94,-33.91 33.836,-46.65125 4.3675,-2.145 19.65,-7.8675 33.96125,-12.71375 35.85875,-5.85625 44.86375,-41.68125 69.4525,-61.3225 21.23625,-11.18875 33.5925,-20.5275 33.5925,-25.38875 0,-3.0125 -4.25375,-11.04 -9.45125,-17.84 -17.76,-23.22875 -12.13,-39.72875 21.3675,-62.61875 18.9525,-12.95125 21.1675,-13.60125 39.81,-11.68125 10.85625,1.1175 20.59625,2.88875 21.64625,3.935 1.04875,1.04625 2.68,9.9325 3.625,19.7475 1.8525,19.23 5.3125,20.845 6.155,2.87125 0.3,-6.38875 3.5625,-13.52375 7.7225,-16.88375 7.0575,-5.7025 7.07,-5.9825 0.59625,-13.95875 -3.63375,-4.47625 -6.60625,-11.7525 -6.60625,-16.16875 0,-9.94375 -24.4,-54.3115 -30.92,-54.3115 -3.2425,0 -1.83375,17.303 -2.2825,28.56775 -0.36375,9.13 -1.68875,17.62375 -2.9425,18.875 -6.075,6.06 -9.82375,-4.6625 -9.82375,-28.09875 0,-30.9335 -3.79125,-43.2235 -21.715,-70.396 -7.96125,-10.13412 -11.4325,-22.721 -20.345,-31.893875 -6.46125,-5.834375 -6.76375,-5.510125 -8.51875,9.154875 -7.95,66.408 -12.15,83.9965 -20.05875,83.9965 -6.51375,0 -7.29,-7.1455 -1.905,-17.5355 3.04625,-5.878 5.34625,-20.137 4.33875,-20.137 -113.7875,79.12475 -182.28925,144.006 -239.28315,280.09225 14.12365,50.53 61.1829,84.77375 97.7484,60.36 l 0,0 z m -62.53725,-72.94375 c 0,-9.225 7.52875,-30.0525 11.90275,-32.92625 2.0195,-1.3275 7.4515,1.35625 12.0705,5.965 10.943,10.91875 9.526,24.21125 -2.757,25.85125 -4.862,0.64875 -10.3515,2.63375 -12.199,4.41 -5.33175,5.125 -9.01725,3.77625 -9.01725,-3.3 l 0,0 z m 98.02825,-101.46 c -4.91625,-4.905 -2.46875,-16.74625 8.05375,-38.96625 5.83375,-12.32 10.6075,-23.6975 10.6075,-25.2825 0,-1.58625 5.70375,-9.53125 12.67375,-17.655 12.87375,-15.005 14.73125,-15.66375 14.73125,-3.3 0,4.2775 6.8425,6.2175 10.875,6.2175 11.52875,0 21.8325,14.84375 21.8325,31.44875 -24.53125,64.29375 -48.91625,27.6625 -71.74375,43.98125 -2.46125,3.3575 -5.625,4.9575 -7.03,3.55625 l 0,0 z m 69.68125,-54.83375 c -5.1475,-18.20125 -13.81,-14.85375 -27.10375,-12.90875 -7.27875,1.065 -23.2575,25.455 -29.03375,44.32 -2.2475,7.33875 1.1925,11.0875 14.65375,11.0875 23.30125,-0.165 46.63125,-24.2975 41.48375,-42.49875 l 0,0 z m 195.33875,69.4325 c -2.585,3.82625 -4.38875,11.72125 -4.00875,17.54125 0.38,5.82125 -0.865,12.54875 -2.7675,14.94875 -5.35875,6.76125 -0.2875,15.03875 9.2125,15.03875 32.35,-3.7025 17.475,-69.47625 -2.43625,-47.52875 l 0,0 z m -3.62125,-20.5575 c 6.995,-4.12375 5.9975,-19.9575 -1.4,-22.2425 -3.405,-1.05 -8.955,-3.38125 -12.32875,-5.18125 -8.95,-4.765 -12.93,-7.75375 -17.195,8.0475 -4.34875,16.115 -0.08,23.09375 10.46625,23.88625 16.8625,7.485 6.44375,7.31875 20.4575,-4.51 l 0,0 z M 569.6716,123.85887 c -3.1025,-2.569 -9.1025,-11.9525 -13.33125,-20.85188 l -7.68875,-16.180245 -2.36,21.166995 c -3.42,30.66863 -3.53,47.62613 -0.31,47.62613 8.9625,-6.9485 31.0125,-19.8545 23.69,-31.761 l 0,0 z" /></svg>